<svg width="163" height="32" viewBox="0 0 163 32" fill="none" xmlns="http://www.w3.org/2000/svg">
<path d="M15.4545 6.10199C15.7419 5.42742 16.7373 5.42754 17.0248 6.10199L17.0258 6.10394L19.5834 12.0502C19.6564 12.2199 19.8173 12.3356 20.0014 12.351L26.5375 12.8979H26.5405C27.2971 12.9572 27.5861 13.8744 27.0268 14.352L27.0258 14.353L22.06 18.5922C21.9174 18.7139 21.8547 18.9059 21.8979 19.0883L23.3862 25.3813C23.5509 26.0801 22.7776 26.673 22.1127 26.2768L16.4955 22.9301C16.3382 22.8365 16.1423 22.8357 15.9848 22.9291L10.3686 26.2631H10.3676C9.70263 26.6597 8.92917 26.0667 9.09418 25.3676L10.5825 19.0746C10.6256 18.8922 10.5629 18.7012 10.4203 18.5795L5.45355 14.3393L5.35883 14.2446C4.93192 13.7501 5.23033 12.9398 5.93988 12.8842H5.94183L12.4789 12.3373C12.6627 12.3219 12.8228 12.2068 12.8959 12.0375L15.4545 6.10394V6.10199Z" fill="#FFBA79" stroke="#FFBA79" stroke-linejoin="round"/>
<path d="M47.9345 6.10199C48.2219 5.42742 49.2173 5.42754 49.5048 6.10199L49.5058 6.10394L52.0634 12.0502C52.1364 12.2199 52.2973 12.3356 52.4814 12.351L59.0175 12.8979H59.0204C59.777 12.9572 60.066 13.8744 59.5067 14.352L59.5058 14.353L54.5399 18.5922C54.3974 18.7139 54.3347 18.9059 54.3778 19.0883L55.8661 25.3813C56.0308 26.0801 55.2575 26.673 54.5927 26.2768L48.9755 22.9301C48.8182 22.8365 48.6222 22.8357 48.4648 22.9291L42.8485 26.2631H42.8476C42.1826 26.6597 41.4091 26.0667 41.5741 25.3676L43.0624 19.0746C43.1056 18.8922 43.0428 18.7012 42.9003 18.5795L37.9335 14.3393L37.8388 14.2446C37.4119 13.7501 37.7103 12.9398 38.4198 12.8842H38.4218L44.9589 12.3373C45.1427 12.3219 45.3028 12.2068 45.3759 12.0375L47.9345 6.10394V6.10199Z" fill="#FFBA79" stroke="#FFBA79" stroke-linejoin="round"/>
<path d="M80.4145 6.10199C80.7019 5.42742 81.6972 5.42754 81.9848 6.10199L81.9857 6.10394L84.5434 12.0502C84.6163 12.2199 84.7773 12.3356 84.9613 12.351L91.4975 12.8979H91.5004C92.257 12.9572 92.546 13.8744 91.9867 14.352L91.9857 14.353L87.0199 18.5922C86.8774 18.7139 86.8147 18.9059 86.8578 19.0883L88.3461 25.3813C88.5108 26.0801 87.7375 26.673 87.0727 26.2768L81.4555 22.9301C81.2981 22.8365 81.1022 22.8357 80.9447 22.9291L75.3285 26.2631H75.3275C74.6626 26.6597 73.8891 26.0667 74.0541 25.3676L75.5424 19.0746C75.5855 18.8922 75.5228 18.7012 75.3803 18.5795L70.4135 14.3393L70.3188 14.2446C69.8918 13.7501 70.1903 12.9398 70.8998 12.8842H70.9018L77.4389 12.3373C77.6226 12.3219 77.7828 12.2068 77.8559 12.0375L80.4145 6.10394V6.10199Z" fill="#FFBA79" stroke="#FFBA79" stroke-linejoin="round"/>
<path d="M112.894 6.10199C113.182 5.42742 114.177 5.42754 114.465 6.10199L114.466 6.10394L117.023 12.0502C117.096 12.2199 117.257 12.3356 117.441 12.351L123.977 12.8979H123.98C124.737 12.9572 125.026 13.8744 124.467 14.352L124.466 14.353L119.5 18.5922C119.357 18.7139 119.295 18.9059 119.338 19.0883L120.826 25.3813C120.991 26.0801 120.217 26.673 119.553 26.2768L113.935 22.9301C113.778 22.8365 113.582 22.8357 113.425 22.9291L107.809 26.2631H107.808C107.143 26.6597 106.369 26.0667 106.534 25.3676L108.022 19.0746C108.066 18.8922 108.003 18.7012 107.86 18.5795L102.893 14.3393L102.799 14.2446C102.372 13.7501 102.67 12.9398 103.38 12.8842H103.382L109.919 12.3373C110.103 12.3219 110.263 12.2068 110.336 12.0375L112.894 6.10394V6.10199Z" fill="#FFBA79" stroke="#FFBA79" stroke-linejoin="round"/>
<path d="M145.374 6.10199C145.662 5.42742 146.657 5.42754 146.945 6.10199L146.946 6.10394L149.503 12.0502C149.576 12.2199 149.737 12.3356 149.921 12.351L156.457 12.8979H156.46C157.217 12.9572 157.506 13.8744 156.947 14.352L156.946 14.353L151.98 18.5922C151.837 18.7139 151.775 18.9059 151.818 19.0883L153.306 25.3813C153.471 26.0801 152.697 26.673 152.033 26.2768L146.415 22.9301C146.258 22.8365 146.062 22.8357 145.905 22.9291L140.288 26.2631H140.288C139.623 26.6597 138.849 26.0667 139.014 25.3676L140.502 19.0746C140.545 18.8922 140.483 18.7012 140.34 18.5795L135.373 14.3393L135.279 14.2446C134.852 13.7501 135.15 12.9398 135.86 12.8842H135.862L142.399 12.3373C142.583 12.3219 142.743 12.2068 142.816 12.0375L145.374 6.10394V6.10199Z" fill="#FFBA79" stroke="#FFBA79" stroke-linejoin="round"/>
</svg>
